<?xml version="1.0" encoding="UTF-8" standalone="no"?>
<!-- Created with Inkscape (http://www.inkscape.org/) -->

<svg
   xmlns:dc="http://purl.org/dc/elements/1.1/"
   xmlns:cc="http://creativecommons.org/ns#"
   xmlns:rdf="http://www.w3.org/1999/02/22-rdf-syntax-ns#"
   xmlns:svg="http://www.w3.org/2000/svg"
   xmlns="http://www.w3.org/2000/svg"
   xmlns:xlink="http://www.w3.org/1999/xlink"
   xmlns:sodipodi="http://sodipodi.sourceforge.net/DTD/sodipodi-0.dtd"
   xmlns:inkscape="http://www.inkscape.org/namespaces/inkscape"
   width="210mm"
   height="297mm"
   id="svg3739"
   version="1.1"
   inkscape:version="0.47 r22583"
   sodipodi:docname="desenho.svg">
  <defs
     id="defs3741">
    <inkscape:perspective
       sodipodi:type="inkscape:persp3d"
       inkscape:vp_x="0 : 526.18109 : 1"
       inkscape:vp_y="0 : 1000 : 0"
       inkscape:vp_z="744.09448 : 526.18109 : 1"
       inkscape:persp3d-origin="372.04724 : 350.78739 : 1"
       id="perspective3747" />
    <inkscape:perspective
       id="perspective3987"
       inkscape:persp3d-origin="0.5 : 0.33333333 : 1"
       inkscape:vp_z="1 : 0.5 : 1"
       inkscape:vp_y="0 : 1000 : 0"
       inkscape:vp_x="0 : 0.5 : 1"
       sodipodi:type="inkscape:persp3d" />
    <clipPath
       clipPathUnits="userSpaceOnUse"
       id="clipPath3994">
      <path
         style="opacity:0.94800002;fill:#ff0000;fill-opacity:1;fill-rule:evenodd;stroke:#ff0000;stroke-width:2.4000001;stroke-linecap:butt;stroke-miterlimit:4;stroke-opacity:0.87640453"
         d="m 82.857147,592.36218 c 0,274.56442 -239.847457,497.14282 -535.714297,497.14282 -295.86683,0 -535.71429,-222.5784 -535.71429,-497.14282 0,-274.56441 239.84746,-497.14285 535.71429,-497.14285 295.86684,0 535.714297,222.57844 535.714297,497.14285 z"
         id="path3996" />
    </clipPath>
    <inkscape:perspective
       id="perspective4006"
       inkscape:persp3d-origin="0.5 : 0.33333333 : 1"
       inkscape:vp_z="1 : 0.5 : 1"
       inkscape:vp_y="0 : 1000 : 0"
       inkscape:vp_x="0 : 0.5 : 1"
       sodipodi:type="inkscape:persp3d" />
    <inkscape:perspective
       id="perspective4040"
       inkscape:persp3d-origin="0.5 : 0.33333333 : 1"
       inkscape:vp_z="1 : 0.5 : 1"
       inkscape:vp_y="0 : 1000 : 0"
       inkscape:vp_x="0 : 0.5 : 1"
       sodipodi:type="inkscape:persp3d" />
    <clipPath
       clipPathUnits="userSpaceOnUse"
       id="clipPath3994-1">
      <path
         style="opacity:0.94800002;fill:#ff0000;fill-opacity:1;fill-rule:evenodd;stroke:#ff0000;stroke-width:2.4000001;stroke-linecap:butt;stroke-miterlimit:4;stroke-opacity:0.87640453"
         d="m 82.857147,592.36218 c 0,274.56442 -239.847457,497.14282 -535.714297,497.14282 -295.86683,0 -535.71429,-222.5784 -535.71429,-497.14282 0,-274.56441 239.84746,-497.14285 535.71429,-497.14285 295.86684,0 535.714297,222.57844 535.714297,497.14285 z"
         id="path3996-7" />
    </clipPath>
    <inkscape:perspective
       id="perspective4040-0"
       inkscape:persp3d-origin="0.5 : 0.33333333 : 1"
       inkscape:vp_z="1 : 0.5 : 1"
       inkscape:vp_y="0 : 1000 : 0"
       inkscape:vp_x="0 : 0.5 : 1"
       sodipodi:type="inkscape:persp3d" />
    <clipPath
       clipPathUnits="userSpaceOnUse"
       id="clipPath3994-8">
      <path
         style="opacity:0.94800002;fill:#ff0000;fill-opacity:1;fill-rule:evenodd;stroke:#ff0000;stroke-width:2.4000001;stroke-linecap:butt;stroke-miterlimit:4;stroke-opacity:0.87640453"
         d="m 82.857147,592.36218 c 0,274.56442 -239.847457,497.14282 -535.714297,497.14282 -295.86683,0 -535.71429,-222.5784 -535.71429,-497.14282 0,-274.56441 239.84746,-497.14285 535.71429,-497.14285 295.86684,0 535.714297,222.57844 535.714297,497.14285 z"
         id="path3996-3" />
    </clipPath>
    <inkscape:perspective
       id="perspective4106"
       inkscape:persp3d-origin="0.5 : 0.33333333 : 1"
       inkscape:vp_z="1 : 0.5 : 1"
       inkscape:vp_y="0 : 1000 : 0"
       inkscape:vp_x="0 : 0.5 : 1"
       sodipodi:type="inkscape:persp3d" />
    <inkscape:perspective
       id="perspective4200"
       inkscape:persp3d-origin="0.5 : 0.33333333 : 1"
       inkscape:vp_z="1 : 0.5 : 1"
       inkscape:vp_y="0 : 1000 : 0"
       inkscape:vp_x="0 : 0.5 : 1"
       sodipodi:type="inkscape:persp3d" />
    <clipPath
       clipPathUnits="userSpaceOnUse"
       id="clipPath4206">
      <g
         id="g4208"
         transform="matrix(1.9633903,0,0,1.982795,-1548.0014,-145.19577)"
         style="fill:#ffffff;stroke:#000080;stroke-width:12.39999962;stroke-miterlimit:4;stroke-dasharray:none">
        <g
           transform="matrix(1.1083264,0,0,1.1945765,743.01014,-412.95921)"
           id="g4210"
           style="font-size:40px;font-style:normal;font-weight:normal;fill:#ffffff;fill-opacity:1;stroke:#000080;stroke-width:10.77657795;stroke-miterlimit:4;stroke-dasharray:none;font-family:Bitstream Vera Sans">
          <path
             inkscape:connector-curvature="0"
             sodipodi:nodetypes="cccccccccccccccc"
             id="path4212"
             style="font-size:500px;fill:#ffffff;stroke:#000080;stroke-width:10.77657795;stroke-miterlimit:4;stroke-dasharray:none"
             d="m -244.9061,474.37735 -151.93107,194.58008 151.93107,0 0,-194.58008 m -12.93945,-42.96875 62.01172,0 0,237.54883 148.776144,-1.6129 -83.870964,42.62853 -64.90518,0 0,85.9375 -49.07227,0 0,-85.9375 -248.42175,1.6129 64.51613,-75.02678 170.96617,-205.15058" />
        </g>
        <g
           transform="matrix(1.0722837,0,0,1.1415985,734.04666,-383.66743)"
           id="g4214"
           style="font-size:40px;font-style:normal;font-weight:normal;fill:#ffffff;fill-opacity:1;stroke:#000080;stroke-width:11.20753574;stroke-miterlimit:4;stroke-dasharray:none;font-family:Bitstream Vera Sans">
          <path
             inkscape:connector-curvature="0"
             sodipodi:nodetypes="cccccccccccccccc"
             id="path4216"
             style="font-size:500px;fill:#ffffff;stroke:#000080;stroke-width:11.20753574;stroke-miterlimit:4;stroke-dasharray:none"
             d="m -244.9061,474.37735 -151.93107,194.58008 151.93107,0 0,-194.58008 m -12.93945,-42.96875 62.01172,0 0,237.54883 148.776144,-1.6129 -83.870964,42.62853 -64.90518,0 0,85.9375 -49.07227,0 0,-85.9375 -248.42175,1.6129 64.51613,-75.02678 170.96617,-205.15058" />
        </g>
      </g>
    </clipPath>
    <inkscape:perspective
       id="perspective4257"
       inkscape:persp3d-origin="0.5 : 0.33333333 : 1"
       inkscape:vp_z="1 : 0.5 : 1"
       inkscape:vp_y="0 : 1000 : 0"
       inkscape:vp_x="0 : 0.5 : 1"
       sodipodi:type="inkscape:persp3d" />
    <inkscape:perspective
       id="perspective4295"
       inkscape:persp3d-origin="0.5 : 0.33333333 : 1"
       inkscape:vp_z="1 : 0.5 : 1"
       inkscape:vp_y="0 : 1000 : 0"
       inkscape:vp_x="0 : 0.5 : 1"
       sodipodi:type="inkscape:persp3d" />
    <inkscape:perspective
       id="perspective3019"
       inkscape:persp3d-origin="0.5 : 0.33333333 : 1"
       inkscape:vp_z="1 : 0.5 : 1"
       inkscape:vp_y="0 : 1000 : 0"
       inkscape:vp_x="0 : 0.5 : 1"
       sodipodi:type="inkscape:persp3d" />
    <inkscape:perspective
       id="perspective3446"
       inkscape:persp3d-origin="0.5 : 0.33333333 : 1"
       inkscape:vp_z="1 : 0.5 : 1"
       inkscape:vp_y="0 : 1000 : 0"
       inkscape:vp_x="0 : 0.5 : 1"
       sodipodi:type="inkscape:persp3d" />
    <clipPath
       clipPathUnits="userSpaceOnUse"
       id="clipPath3489">
      <g
         transform="scale(0.7601915,1.315458)"
         style="font-size:69.13088226px;font-style:normal;font-weight:normal;fill:#550000;fill-opacity:1;stroke:none;font-family:Bitstream Vera Sans"
         id="g3491">
        <path
           d="m 910.67825,857.98122 c -3.91753,19.4719 -11.86757,34.68068 -23.85015,45.62638 -3.68707,3.34134 -7.60449,6.10657 -11.75225,8.29571 l 0,0.6913 c -1.15227,5.64569 1.78579,8.46853 8.81418,8.46854 0.34557,-10e-6 3.85972,-0.34566 10.54246,-1.03697 l -4.14785,21.08492 c -3.80229,0.80651 -7.14361,1.20977 -10.02398,1.2098 -11.40667,-3e-5 -18.43497,-2.9957 -21.08492,-8.98702 -1.72833,-3.57177 -2.30442,-8.58376 -1.72827,-15.03597 -5.06966,0.57609 -8.23815,0.86414 -9.50549,0.86414 -18.7806,0 -31.16654,-7.89244 -37.15785,-23.67733 -3.80222,-10.60004 -4.26309,-23.10119 -1.38262,-37.5035 3.80217,-19.35657 11.98265,-34.68057 24.54146,-45.97204 10.94567,-9.90865 23.73487,-14.86302 38.36764,-14.86314 18.20437,1.2e-4 30.35987,7.71973 36.46654,23.15885 4.14774,10.60015 4.78143,23.15892 1.9011,37.67633 m -29.03497,0.17282 c 5.0695,-25.57834 0.46078,-38.36754 -13.82618,-38.36764 -13.82623,1e-4 -23.44694,11.69473 -28.86214,35.08393 -0.11526,1.03702 -0.28809,2.07398 -0.51848,3.11089 -5.18486,25.69368 -0.51853,38.54049 13.999,38.54046 14.28698,3e-5 24.0229,-12.78918 29.2078,-38.36764"
           style="font-size:172.82720947px;font-style:italic;font-variant:normal;font-weight:bold;font-stretch:normal;fill:#550000;font-family:UnDotum;-inkscape-font-specification:UnDotum Bold Italic"
           id="path3493" />
        <path
           d="m 989.86012,917.43378 -23.5045,0 2.93806,-15.03597 -0.34565,0 c -6.79793,10.83051 -16.24581,16.41858 -28.34366,16.76424 -13.94142,0 -20.91211,-6.22178 -20.9121,-18.66534 -0.11523,-3.22609 0.28803,-6.97067 1.20979,-11.23377 l 11.92508,-59.62539 25.4056,0 -11.06094,55.30471 c -1.38266,6.68268 -0.86418,10.88814 1.55544,12.61639 1.26736,0.80654 3.05324,1.20981 5.35765,1.20979 8.29565,2e-5 13.88372,-4.95436 16.76424,-14.86314 0.57602,-1.95867 1.15211,-4.32064 1.72827,-7.08592 l 9.5055,-47.18183 25.4056,0 -17.62838,87.79623"
           style="font-size:172.82720947px;font-style:italic;font-variant:normal;font-weight:bold;font-stretch:normal;fill:#550000;font-family:UnDotum;-inkscape-font-specification:UnDotum Bold Italic"
           id="path3495" />
        <path
           d="m 1086.3085,917.43378 -25.2328,0 c -0.1153,-4.03263 0.3456,-8.23809 1.3826,-12.61639 0,-0.34564 0.058,-0.69129 0.1729,-1.03696 -7.7197,8.64136 -15.8426,13.59574 -24.3687,14.86314 -2.1891,0.34565 -4.4359,0.51848 -6.7402,0.51848 -11.6371,0 -18.9534,-3.91742 -21.9491,-11.75225 -1.4978,-3.68697 -1.7283,-8.06525 -0.6913,-13.13487 2.8805,-14.28701 13.4229,-23.56206 31.6274,-27.82518 4.7239,-1.03691 14.4022,-2.30431 29.035,-3.8022 l 0.5184,-2.07393 c 1.4978,-7.48911 0.7489,-12.21305 -2.2467,-14.17183 -1.7283,-1.03689 -4.1479,-1.55537 -7.2588,-1.55544 -7.2587,7e-5 -12.5012,2.53487 -15.7272,7.6044 -0.9218,1.4979 -1.6131,3.22617 -2.074,5.18481 l -23.5045,-2.24675 c 4.4935,-13.71088 15.0936,-22.35224 31.8003,-25.92408 4.9543,-1.03688 10.1391,-1.55536 15.5544,-1.55545 12.0978,9e-5 20.7968,2.65011 26.0969,7.95005 4.263,4.26315 5.7032,10.60014 4.3207,19.011 l -1.5555,8.46853 -8.2957,40.96005 c -1.037,5.18482 -1.3251,9.56311 -0.8641,13.13487 m -19.1838,-41.99702 c -14.8632,1.6131 -24.3111,5.12725 -28.3437,10.54246 -1.2674,1.72831 -2.0739,3.57179 -2.4196,5.53048 -1.1522,5.87614 0.5761,9.56312 5.1849,11.06094 1.1521,0.34567 2.4195,0.51849 3.8022,0.51848 7.4891,10e-6 13.3076,-4.14784 17.4555,-12.44356 1.3826,-2.76521 2.3619,-5.76088 2.9381,-8.98702 l 1.3826,-6.22178"
           style="font-size:172.82720947px;font-style:italic;font-variant:normal;font-weight:bold;font-stretch:normal;fill:#550000;font-family:UnDotum;-inkscape-font-specification:UnDotum Bold Italic"
           id="path3497" />
        <path
           d="m 1162.3633,853.66054 -1.7283,0 c -11.1762,6e-5 -18.8958,6.33705 -23.1588,19.01099 -1.037,2.99571 -2.0164,6.7403 -2.9381,11.23377 l -6.7403,33.52848 -25.4056,0 17.6284,-87.79623 23.6773,0 -3.2837,16.41859 0.3457,0 c 5.7608,-12.09782 12.7891,-18.14677 21.0849,-18.14686 1.2673,9e-5 3.1108,0.11531 5.5305,0.34566 l -5.012,25.4056"
           style="font-size:172.82720947px;font-style:italic;font-variant:normal;font-weight:bold;font-stretch:normal;fill:#550000;font-family:UnDotum;-inkscape-font-specification:UnDotum Bold Italic"
           id="path3499" />
        <path
           d="m 1211.7649,917.26095 c -6.5675,1.2674 -11.9828,1.9011 -16.2458,1.9011 -12.7892,0 -20.5665,-2.82284 -23.3317,-8.46853 -2.3043,-4.26306 -2.362,-11.69463 -0.1728,-22.29471 l 7.6044,-38.7133 -14.3447,0 4.1479,-20.22078 15.3816,0 7.4316,-25.75126 22.4675,-1.72827 -5.5304,27.47953 18.8381,0 -4.1478,20.22078 -18.8382,0 -7.2587,36.46654 c -1.1523,5.64572 -0.9218,9.15987 0.6913,10.54246 1.2673,1.1522 3.6869,1.72829 7.2587,1.72827 2.1891,2e-5 5.4728,-0.1152 9.8512,-0.34565 l -3.8022,19.18382"
           style="font-size:172.82720947px;font-style:italic;font-variant:normal;font-weight:bold;font-stretch:normal;fill:#550000;font-family:UnDotum;-inkscape-font-specification:UnDotum Bold Italic"
           id="path3501" />
        <path
           d="m 1312.8445,877.85635 -56.3417,0 -1.2098,5.18481 0,0.17283 c -1.4979,7.37399 0.2304,12.61641 5.1848,15.72728 2.3043,1.38263 5.012,2.07394 8.1229,2.07392 5.4152,2e-5 10.1391,-2.07391 14.1718,-6.22178 2.1891,-2.30434 3.5717,-4.83913 4.1479,-7.60439 l 23.1588,1.72827 c -0.4609,2.4196 -2.2468,5.47288 -5.3576,9.15984 -8.8719,11.86748 -20.1633,18.72295 -33.8742,20.56644 -2.3044,0.34565 -4.5511,0.51848 -6.7402,0.51848 -15.0936,0 -25.5785,-5.41525 -31.4546,-16.24576 -4.263,-7.71959 -5.3,-17.10986 -3.1109,-28.17083 3.2261,-15.66961 10.5425,-27.88272 21.9491,-36.63937 8.8718,-6.79779 18.9533,-10.19672 30.2448,-10.19681 16.7065,9e-5 27.1337,7.20122 31.2817,21.6034 2.0738,7.71968 2.0738,16.70668 0,26.96105 l -0.1728,1.38262 m -22.4676,-15.03597 c 1.7282,-12.21306 -1.9588,-18.31961 -11.0609,-18.31969 -9.9088,8e-5 -16.5915,6.10663 -20.048,18.31969 l 31.1089,0"
           style="font-size:172.82720947px;font-style:italic;font-variant:normal;font-weight:bold;font-stretch:normal;fill:#550000;font-family:UnDotum;-inkscape-font-specification:UnDotum Bold Italic"
           id="path3503" />
        <path
           d="m 1370.7524,917.26095 c -6.5675,1.2674 -11.9828,1.9011 -16.2458,1.9011 -12.7892,0 -20.5665,-2.82284 -23.3317,-8.46853 -2.3044,-4.26306 -2.362,-11.69463 -0.1728,-22.29471 l 7.6044,-38.7133 -14.3447,0 4.1479,-20.22078 15.3816,0 7.4316,-25.75126 22.4675,-1.72827 -5.5305,27.47953 18.8382,0 -4.1478,20.22078 -18.8382,0 -7.2588,36.46654 c -1.1522,5.64572 -0.9217,9.15987 0.6914,10.54246 1.2673,1.1522 3.6869,1.72829 7.2587,1.72827 2.1891,2e-5 5.4728,-0.1152 9.8512,-0.34565 l -3.8022,19.18382"
           style="font-size:172.82720947px;font-style:italic;font-variant:normal;font-weight:bold;font-stretch:normal;fill:#550000;font-family:UnDotum;-inkscape-font-specification:UnDotum Bold Italic"
           id="path3505" />
        <path
           d="m 1473.0418,874.22697 c -2.8806,14.51752 -9.9089,26.03932 -21.0849,34.56545 -8.9871,6.91309 -19.0687,10.36963 -30.2448,10.36963 -15.3241,0 -25.5785,-6.04895 -30.7633,-18.14686 -3.3413,-7.71959 -3.9174,-16.93703 -1.7282,-27.65235 3.1108,-15.55439 10.3696,-27.53707 21.7762,-35.94806 8.5261,-6.33691 18.2044,-9.50541 29.035,-9.5055 15.7848,9e-5 26.212,6.16426 31.2817,18.49251 3.3412,7.71968 3.9173,16.99473 1.7283,27.82518 m -27.3067,0.17283 c 2.3043,-11.40654 2.7075,-19.18376 1.2098,-23.33167 -2.3045,-3.91735 -5.7034,-6.04888 -10.1968,-6.39461 -9.3328,7e-5 -15.785,8.00773 -19.3567,24.02298 l -0.5185,2.76524 c -2.8805,14.4023 -2.5924,23.61974 0.8642,27.65235 1.7282,2.07395 4.2054,3.11091 7.4315,3.11089 9.6783,2e-5 16.3033,-8.29568 19.8752,-24.88712 0.2303,-0.9217 0.4608,-1.90105 0.6913,-2.93806"
           style="font-size:172.82720947px;font-style:italic;font-variant:normal;font-weight:bold;font-stretch:normal;fill:#550000;font-family:UnDotum;-inkscape-font-specification:UnDotum Bold Italic"
           id="path3507" />
        <path
           d="m 1639.9658,835.16803 c -2.4197,12.32841 -8.1806,22.00672 -17.2827,29.03497 -0.461,0.3457 -0.9795,0.69136 -1.5554,1.03696 -8.1806,5.87617 -20.3361,8.75662 -36.4666,8.64136 l -16.5914,-0.34565 -8.8142,43.89811 -27.6523,0 23.6773,-118.55947 46.8362,0 c 11.7521,1.2e-4 20.3359,1.61317 25.7512,4.83916 0.9217,0.57621 1.7858,1.20991 2.5924,1.9011 8.8717,7.02841 12.0402,16.87955 9.5055,29.55346 m -28.1708,1.03696 c 2.0738,-10.48476 -3.5143,-15.72718 -16.7642,-15.72728 l -16.4186,0 -6.2218,31.45455 16.5914,0 c 13.1348,7e-5 20.7392,-5.24235 22.8132,-15.72727"
           style="font-size:172.82720947px;font-style:italic;font-variant:normal;font-weight:bold;font-stretch:normal;fill:#550000;font-family:UnDotum;-inkscape-font-specification:UnDotum Bold Italic"
           id="path3509" />
        <path
           d="m 1698.0601,853.66054 -1.7283,0 c -11.1762,6e-5 -18.8958,6.33705 -23.1588,19.01099 -1.037,2.99571 -2.0164,6.7403 -2.9381,11.23377 l -6.7402,33.52848 -25.4056,0 17.6284,-87.79623 23.6773,0 -3.2837,16.41859 0.3456,0 c 5.7609,-12.09782 12.7892,-18.14677 21.0849,-18.14686 1.2674,9e-5 3.1109,0.11531 5.5305,0.34566 l -5.012,25.4056"
           style="font-size:172.82720947px;font-style:italic;font-variant:normal;font-weight:bold;font-stretch:normal;fill:#550000;font-family:UnDotum;-inkscape-font-specification:UnDotum Bold Italic"
           id="path3511" />
        <path
           d="m 1783.9282,874.22697 c -2.8805,14.51752 -9.9088,26.03932 -21.0849,34.56545 -8.9871,6.91309 -19.0686,10.36963 -30.2447,10.36963 -15.3241,0 -25.5785,-6.04895 -30.7633,-18.14686 -3.3413,-7.71959 -3.9174,-16.93703 -1.7283,-27.65235 3.1109,-15.55439 10.3697,-27.53707 21.7763,-35.94806 8.5261,-6.33691 18.2044,-9.50541 29.0349,-9.5055 15.7849,9e-5 26.2121,6.16426 31.2818,18.49251 3.3412,7.71968 3.9173,16.99473 1.7282,27.82518 m -27.3067,0.17283 c 2.3043,-11.40654 2.7076,-19.18376 1.2098,-23.33167 -2.3044,-3.91735 -5.7033,-6.04888 -10.1968,-6.39461 -9.3327,7e-5 -15.7849,8.00773 -19.3566,24.02298 l -0.5185,2.76524 c -2.8805,14.4023 -2.5924,23.61974 0.8641,27.65235 1.7283,2.07395 4.2055,3.11091 7.4316,3.11089 9.6783,2e-5 16.3033,-8.29568 19.8751,-24.88712 0.2304,-0.9217 0.4608,-1.90105 0.6913,-2.93806"
           style="font-size:172.82720947px;font-style:italic;font-variant:normal;font-weight:bold;font-stretch:normal;fill:#550000;font-family:UnDotum;-inkscape-font-specification:UnDotum Bold Italic"
           id="path3513" />
        <path
           d="m 1894.3756,831.71148 c -3.5718,-0.576 -5.761,-0.86405 -6.5674,-0.86414 -5.0697,9e-5 -8.6415,1.90119 -10.7153,5.7033 -0.3457,0.57617 -0.6914,1.20987 -1.0369,1.9011 3.4564,5.53055 4.6662,11.23384 3.6293,17.1099 -2.1892,10.71533 -9.2175,18.43494 -21.0849,23.15884 -6.2218,2.53484 -12.7317,3.80224 -19.5295,3.8022 -1.3826,4e-5 -7.4892,-0.46084 -18.3197,-1.38262 -3.2261,1.61309 -5.0696,3.74462 -5.5304,6.39461 -0.6914,3.34135 0.5184,5.5881 3.6293,6.74026 3.1109,1.1522 10.7153,1.84351 22.8132,2.07393 14.5174,0.34567 24.1958,2.18916 29.035,5.53047 5.2999,3.80221 7.1434,9.79355 5.5305,17.97403 -2.9958,15.32399 -16.3611,24.48383 -40.0959,27.47952 -5.0697,0.69128 -10.5425,1.03694 -16.4186,1.03697 -25.9241,-3e-5 -39.7503,-4.95441 -41.4785,-14.86314 -0.2305,-1.72829 -0.1153,-3.57178 0.3456,-5.53047 1.2674,-6.68266 5.8185,-11.52182 13.6534,-14.51749 1.4978,-0.57609 3.0532,-1.03696 4.6663,-1.38262 -6.6827,-3.80219 -9.3903,-9.04461 -8.1229,-15.72727 1.6131,-7.71959 7.95,-13.88375 19.011,-18.49251 0.8065,-0.34562 1.6706,-0.69127 2.5924,-1.03697 -8.7566,-3.57172 -12.6164,-9.90871 -11.5794,-19.01099 0,-0.80647 0.1152,-1.61299 0.3456,-2.41958 2.4196,-11.98261 11.0033,-20.2207 25.7513,-24.71429 6.3369,-1.8434 13.0196,-2.76515 20.048,-2.76524 8.2956,9e-5 15.7848,1.26749 22.4675,3.8022 2.6499,-8.18039 6.5673,-13.3076 11.7522,-15.38162 2.8804,-1.15208 6.7402,-1.72817 11.5795,-1.72827 l 6.9131,0.69131 -3.2838,16.41858 m -40.0959,23.15885 c 1.2673,-6.22171 -1.0946,-10.25434 -7.0859,-12.09791 -1.6131,-0.57601 -3.4566,-0.86406 -5.5305,-0.86413 -6.4522,7e-5 -11.2338,2.53487 -14.3446,7.60439 -1.037,1.72834 -1.7859,3.57183 -2.2468,5.53047 -1.3826,6.91315 0.8641,11.17621 6.7403,12.78922 1.4978,0.3457 3.0532,0.51853 4.6663,0.51848 7.1435,5e-5 12.3859,-2.59236 15.7273,-7.77723 1.0369,-1.72821 1.7282,-3.62931 2.0739,-5.70329 m -3.1109,69.47654 c 0.6913,-3.68699 -2.0164,-5.7033 -8.1228,-6.04896 l -34.047,-1.38261 c -4.0327,1.38261 -6.3946,3.74458 -7.0859,7.08591 -1.1522,6.10655 6.5098,9.04461 22.986,8.81419 1.7282,-2e-5 2.7076,-2e-5 2.9381,0 14.4022,-2e-5 22.1794,-2.82286 23.3316,-8.46853"
           style="font-size:172.82720947px;font-style:italic;font-variant:normal;font-weight:bold;font-stretch:normal;fill:#550000;font-family:UnDotum;-inkscape-font-specification:UnDotum Bold Italic"
           id="path3515" />
        <path
           d="m 1946.8367,853.66054 -1.7282,0 c -11.1763,6e-5 -18.8959,6.33705 -23.1589,19.01099 -1.037,2.99571 -2.0163,6.7403 -2.938,11.23377 l -6.7403,33.52848 -25.4056,0 17.6284,-87.79623 23.6773,0 -3.2837,16.41859 0.3456,0 c 5.7609,-12.09782 12.7892,-18.14677 21.0849,-18.14686 1.2674,9e-5 3.1109,0.11531 5.5305,0.34566 l -5.012,25.4056"
           style="font-size:172.82720947px;font-style:italic;font-variant:normal;font-weight:bold;font-stretch:normal;fill:#550000;font-family:UnDotum;-inkscape-font-specification:UnDotum Bold Italic"
           id="path3517" />
        <path
           d="m 2022.6809,917.43378 -25.2328,0 c -0.1153,-4.03263 0.3456,-8.23809 1.3826,-12.61639 0,-0.34564 0.058,-0.69129 0.1729,-1.03696 -7.7197,8.64136 -15.8426,13.59574 -24.3687,14.86314 -2.1892,0.34565 -4.4359,0.51848 -6.7402,0.51848 -11.6371,0 -18.9534,-3.91742 -21.9491,-11.75225 -1.4978,-3.68697 -1.7283,-8.06525 -0.6913,-13.13487 2.8804,-14.28701 13.4229,-23.56206 31.6274,-27.82518 4.7239,-1.03691 14.4022,-2.30431 29.0349,-3.8022 l 0.5185,-2.07393 c 1.4978,-7.48911 0.7489,-12.21305 -2.2467,-14.17183 -1.7284,-1.03689 -4.148,-1.55537 -7.2588,-1.55544 -7.2588,7e-5 -12.5012,2.53487 -15.7273,7.6044 -0.9217,1.4979 -1.6131,3.22617 -2.0739,5.18481 l -23.5045,-2.24675 c 4.4935,-13.71088 15.0936,-22.35224 31.8002,-25.92408 4.9544,-1.03688 10.1392,-1.55536 15.5545,-1.55545 12.0978,9e-5 20.7968,2.65011 26.0969,7.95005 4.263,4.26315 5.7032,10.60014 4.3207,19.011 l -1.5555,8.46853 -8.2957,40.96005 c -1.037,5.18482 -1.3251,9.56311 -0.8641,13.13487 m -19.1838,-41.99702 c -14.8632,1.6131 -24.3111,5.12725 -28.3437,10.54246 -1.2674,1.72831 -2.074,3.57179 -2.4196,5.53048 -1.1522,5.87614 0.5761,9.56312 5.1848,11.06094 1.1522,0.34567 2.4196,0.51849 3.8022,0.51848 7.4892,10e-6 13.3077,-4.14784 17.4556,-12.44356 1.3825,-2.76521 2.3619,-5.76088 2.938,-8.98702 l 1.3827,-6.22178"
           style="font-size:172.82720947px;font-style:italic;font-variant:normal;font-weight:bold;font-stretch:normal;fill:#550000;font-family:UnDotum;-inkscape-font-specification:UnDotum Bold Italic"
           id="path3519" />
        <path
           d="m 2161.6448,917.43378 -25.4056,0 10.5424,-53.05796 c 1.3825,-6.91302 1.3249,-11.34892 -0.1728,-13.30769 -1.498,-1.72821 -4.148,-2.59234 -7.9501,-2.59241 -7.6045,7e-5 -12.7893,4.72401 -15.5544,14.17183 -0.461,1.72833 -1.0371,4.49356 -1.7283,8.29571 l -9.3326,46.49052 -25.4056,0 10.5424,-52.53947 c 1.7282,-8.75652 0.576,-13.99894 -3.4565,-15.72728 l -3.6294,-0.86414 -1.037,0 c -7.374,7e-5 -12.386,4.37836 -15.0359,13.13487 -0.5762,1.72833 -1.3251,4.89682 -2.2468,9.5055 l -9.3327,46.49052 -25.4056,0 17.6284,-87.79623 24.1958,0 -2.7652,13.48053 0.3456,0 c 6.4522,-10.13912 15.612,-15.20871 27.4796,-15.2088 10.6,9e-5 17.4554,4.78164 20.5664,14.34466 0.2304,0.23051 0.3456,0.51856 0.3457,0.86414 5.4151,-8.52606 13.3076,-13.48044 23.6773,-14.86314 1.7281,-0.23035 3.3988,-0.34557 5.012,-0.34566 14.863,9e-5 22.1217,6.62513 21.7762,19.87513 -0.1154,2.18921 -0.461,4.55118 -1.037,7.08592 l -12.6163,62.56345"
           style="font-size:172.82720947px;font-style:italic;font-variant:normal;font-weight:bold;font-stretch:normal;fill:#550000;font-family:UnDotum;-inkscape-font-specification:UnDotum Bold Italic"
           id="path3521" />
        <path
           d="m 2257.6179,917.43378 -25.2328,0 c -0.1153,-4.03263 0.3456,-8.23809 1.3826,-12.61639 0,-0.34564 0.058,-0.69129 0.1729,-1.03696 -7.7197,8.64136 -15.8426,13.59574 -24.3687,14.86314 -2.1892,0.34565 -4.4359,0.51848 -6.7402,0.51848 -11.6371,0 -18.9534,-3.91742 -21.9491,-11.75225 -1.4978,-3.68697 -1.7283,-8.06525 -0.6913,-13.13487 2.8804,-14.28701 13.4229,-23.56206 31.6274,-27.82518 4.7239,-1.03691 14.4022,-2.30431 29.035,-3.8022 l 0.5184,-2.07393 c 1.4978,-7.48911 0.7489,-12.21305 -2.2467,-14.17183 -1.7284,-1.03689 -4.1479,-1.55537 -7.2588,-1.55544 -7.2588,7e-5 -12.5012,2.53487 -15.7272,7.6044 -0.9218,1.4979 -1.6131,3.22617 -2.074,5.18481 l -23.5045,-2.24675 c 4.4935,-13.71088 15.0936,-22.35224 31.8002,-25.92408 4.9544,-1.03688 10.1392,-1.55536 15.5545,-1.55545 12.0978,9e-5 20.7968,2.65011 26.0969,7.95005 4.263,4.26315 5.7032,10.60014 4.3207,19.011 l -1.5555,8.46853 -8.2957,40.96005 c -1.037,5.18482 -1.3251,9.56311 -0.8641,13.13487 m -19.1838,-41.99702 c -14.8632,1.6131 -24.3111,5.12725 -28.3437,10.54246 -1.2674,1.72831 -2.074,3.57179 -2.4196,5.53048 -1.1522,5.87614 0.5761,9.56312 5.1848,11.06094 1.1522,0.34567 2.4196,0.51849 3.8022,0.51848 7.4892,10e-6 13.3077,-4.14784 17.4556,-12.44356 1.3825,-2.76521 2.3619,-5.76088 2.9381,-8.98702 l 1.3826,-6.22178"
           style="font-size:172.82720947px;font-style:italic;font-variant:normal;font-weight:bold;font-stretch:normal;fill:#550000;font-family:UnDotum;-inkscape-font-specification:UnDotum Bold Italic"
           id="path3523" />
        <path
           d="m 2348.1902,917.43378 -24.1959,0 2.7653,-13.65335 -0.3457,0 c -7.2588,10.25442 -16.073,15.38162 -26.4425,15.38162 -14.8632,0 -22.8709,-8.23809 -24.023,-24.71429 -0.5761,-5.99132 -0.1152,-12.61635 1.3826,-19.87513 3.8022,-19.35659 11.1761,-32.8947 22.1219,-40.6144 5.6456,-4.03254 12.0978,-6.04886 19.3566,-6.04895 9.2174,9e-5 15.612,3.39902 19.1838,10.19681 0.1152,0.23051 0.288,0.51856 0.5185,0.86413 l 7.9501,-40.09591 25.4056,0 -23.6773,118.55947 m -18.1469,-36.63937 2.4196,-12.09791 c 3.1108,-15.32394 0.576,-22.98594 -7.6044,-22.98602 -9.7936,8e-5 -16.5915,9.04469 -20.3936,27.13388 -0.2305,0.69135 -0.4033,1.49788 -0.5185,2.41958 -3.4566,17.05231 -0.5185,25.57844 8.8142,25.57842 8.4108,2e-5 14.0565,-6.04892 16.937,-18.14685 0.1152,-0.69128 0.2304,-1.32497 0.3457,-1.9011"
           style="font-size:172.82720947px;font-style:italic;font-variant:normal;font-weight:bold;font-stretch:normal;fill:#550000;font-family:UnDotum;-inkscape-font-specification:UnDotum Bold Italic"
           id="path3525" />
        <path
           d="m 2453.9712,874.22697 c -2.8805,14.51752 -9.9088,26.03932 -21.0849,34.56545 -8.9871,6.91309 -19.0687,10.36963 -30.2448,10.36963 -15.324,0 -25.5784,-6.04895 -30.7632,-18.14686 -3.3413,-7.71959 -3.9174,-16.93703 -1.7283,-27.65235 3.1109,-15.55439 10.3696,-27.53707 21.7762,-35.94806 8.5261,-6.33691 18.2045,-9.50541 29.035,-9.5055 15.7848,9e-5 26.2121,6.16426 31.2817,18.49251 3.3413,7.71968 3.9174,16.99473 1.7283,27.82518 m -27.3067,0.17283 c 2.3043,-11.40654 2.7076,-19.18376 1.2098,-23.33167 -2.3044,-3.91735 -5.7034,-6.04888 -10.1968,-6.39461 -9.3327,7e-5 -15.7849,8.00773 -19.3566,24.02298 l -0.5185,2.76524 c -2.8805,14.4023 -2.5925,23.61974 0.8641,27.65235 1.7282,2.07395 4.2054,3.11091 7.4316,3.11089 9.6782,2e-5 16.3033,-8.29568 19.8751,-24.88712 0.2304,-0.9217 0.4608,-1.90105 0.6913,-2.93806"
           style="font-size:172.82720947px;font-style:italic;font-variant:normal;font-weight:bold;font-stretch:normal;fill:#550000;font-family:UnDotum;-inkscape-font-specification:UnDotum Bold Italic"
           id="path3527" />
      </g>
    </clipPath>
  </defs>
  <sodipodi:namedview
     id="base"
     pagecolor="#ffffff"
     bordercolor="#666666"
     borderopacity="1.0"
     inkscape:pageopacity="0.0"
     inkscape:pageshadow="2"
     inkscape:zoom="0.31"
     inkscape:cx="378.57143"
     inkscape:cy="100.54057"
     inkscape:document-units="px"
     inkscape:current-layer="layer1"
     showgrid="false"
     inkscape:window-width="1360"
     inkscape:window-height="709"
     inkscape:window-x="0"
     inkscape:window-y="1"
     inkscape:window-maximized="1" />
  <metadata
     id="metadata3744">
    <rdf:RDF>
      <cc:Work
         rdf:about="">
        <dc:format>image/svg+xml</dc:format>
        <dc:type
           rdf:resource="http://purl.org/dc/dcmitype/StillImage" />
        <dc:title></dc:title>
      </cc:Work>
    </rdf:RDF>
  </metadata>
  <g
     inkscape:label="Camada 1"
     inkscape:groupmode="layer"
     id="layer1">
    <g
       id="g3212"
       transform="translate(-920.69122,135.11522)"
       style="fill:none;stroke:none;stroke-width:12.39999961999999911;stroke-miterlimit:4;stroke-dasharray:none">
      <g
         transform="matrix(1.1083264,0,0,1.1945765,743.01014,-412.95921)"
         id="text3703-1"
         style="font-size:40px;font-style:normal;font-weight:normal;fill:none;fill-opacity:1;stroke:none;stroke-width:10.77657795000000007;stroke-miterlimit:4;stroke-dasharray:none;font-family:Bitstream Vera Sans">
        <path
           inkscape:connector-curvature="0"
           sodipodi:nodetypes="cccccccccccccccc"
           id="path3708-7"
           style="font-size:500px;fill:none;stroke:none;stroke-width:10.77657795000000007;stroke-miterlimit:4;stroke-dasharray:none"
           d="m -244.9061,474.37735 -151.93107,194.58008 151.93107,0 0,-194.58008 m -12.93945,-42.96875 62.01172,0 0,237.54883 148.776144,-1.6129 -83.870964,42.62853 -64.90518,0 0,85.9375 -49.07227,0 0,-85.9375 -248.42175,1.6129 64.51613,-75.02678 170.96617,-205.15058" />
      </g>
      <g
         transform="matrix(1.0722837,0,0,1.1415985,734.04666,-383.66743)"
         id="text3703"
         style="font-size:40px;font-style:normal;font-weight:normal;fill:none;fill-opacity:1;stroke:none;stroke-width:11.20753574000000086;stroke-miterlimit:4;stroke-dasharray:none;font-family:Bitstream Vera Sans">
        <path
           inkscape:connector-curvature="0"
           sodipodi:nodetypes="cccccccccccccccc"
           id="path3708"
           style="font-size:500px;fill:none;stroke:none;stroke-width:11.20753574000000086;stroke-miterlimit:4;stroke-dasharray:none"
           d="m -244.9061,474.37735 -151.93107,194.58008 151.93107,0 0,-194.58008 m -12.93945,-42.96875 62.01172,0 0,237.54883 148.776144,-1.6129 -83.870964,42.62853 -64.90518,0 0,85.9375 -49.07227,0 0,-85.9375 -248.42175,1.6129 64.51613,-75.02678 170.96617,-205.15058" />
      </g>
    </g>
    <g
       id="g3529"
       inkscape:export-filename="/media/LETY ACKLES/14.png"
       inkscape:export-xdpi="90"
       inkscape:export-ydpi="90">
      <path
         transform="matrix(1.0904255,0,0,1.1615853,516.56534,556.88397)"
         d="m 417.14288,-39.066387 a 537.14288,468.57144 0 1 1 -1074.28576,0 537.14288,468.57144 0 1 1 1074.28576,0 z"
         sodipodi:ry="468.57144"
         sodipodi:rx="537.14288"
         sodipodi:cy="-39.066387"
         sodipodi:cx="-120"
         id="path4060"
         style="opacity:0.94800002;fill:#ffffff;fill-opacity:1;fill-rule:evenodd;stroke:none"
         sodipodi:type="arc" />
      <image
         style="fill:none"
         transform="matrix(0.99055043,0,0,0.99824759,838.14554,-91.834518)"
         clip-path="url(#clipPath3994)"
         xlink:href="file:///media/LETY%20ACKLES/SmartCar%20Site/img/back-index.jpg"
         width="1624.4285"
         height="1196.1428"
         id="image3989"
         x="-1153.6428"
         y="-32.852104" />
      <path
         transform="matrix(0.94823803,0,0,0.86857611,868.57014,413.14144)"
         d="m -22.857147,126.6479 a 485.71429,491.42856 0 1 1 -971.428593,0 485.71429,491.42856 0 1 1 971.428593,0 z"
         sodipodi:ry="491.42856"
         sodipodi:rx="485.71429"
         sodipodi:cy="126.6479"
         sodipodi:cx="-508.57144"
         id="path4075"
         style="opacity:0.94800002;fill:#ffffff;fill-opacity:1;fill-rule:evenodd;stroke:none"
         sodipodi:type="arc" />
      <image
         transform="matrix(0.74378461,0,0,0.74016591,717.69734,78.810993)"
         clip-path="url(#clipPath3994-8)"
         xlink:href="file:///media/LETY%20ACKLES/SmartCar%20Site/img/back-index.jpg"
         width="1624.4285"
         height="1196.1428"
         id="image3989-8"
         x="-1153.6428"
         y="-32.852104" />
      <g
         transform="matrix(2.3566278,0,0,2.6814872,1028.3153,-1147.5504)"
         id="text3703-1-2"
         style="font-size:40px;font-style:normal;font-weight:normal;fill:#ffffff;fill-opacity:1;stroke:none;font-family:Bitstream Vera Sans">
        <path
           inkscape:connector-curvature="0"
           sodipodi:nodetypes="cccccccccccccccc"
           id="path3708-7-8"
           style="font-size:500px;fill:#ffffff;stroke:none"
           d="m -244.9061,474.37735 -151.93107,194.58008 151.93107,0 0,-194.58008 m -12.93945,-42.96875 62.01172,0 0,237.54883 148.776144,-1.6129 -83.870964,42.62853 -64.90518,0 0,85.9375 -49.07227,0 0,-85.9375 -248.42175,1.6129 64.51613,-75.02678 170.96617,-205.15058" />
      </g>
      <g
         transform="matrix(2.2799904,0,0,2.5625665,1009.2563,-1081.7986)"
         id="text3703-6"
         style="font-size:40px;font-style:normal;font-weight:normal;fill:#ffffff;fill-opacity:1;stroke:none;font-family:Bitstream Vera Sans">
        <path
           inkscape:connector-curvature="0"
           sodipodi:nodetypes="cccccccccccccccc"
           id="path3708-6"
           style="font-size:500px;fill:#ffffff;stroke:none"
           d="m -244.9061,474.37735 -151.93107,194.58008 151.93107,0 0,-194.58008 m -12.93945,-42.96875 62.01172,0 0,237.54883 148.776144,-1.6129 -83.870964,42.62853 -64.90518,0 0,85.9375 -49.07227,0 0,-85.9375 -248.42175,1.6129 64.51613,-75.02678 170.96617,-205.15058" />
      </g>
      <image
         transform="translate(-811.42857,-20)"
         clip-path="url(#clipPath3489)"
         xlink:href="file:///media/LETY%20ACKLES/SmartCar%20Site/img/back-index.jpg"
         width="1818.7142"
         height="764.71429"
         id="image3448"
         x="252.07143"
         y="685.96216" />
    </g>
  </g>
</svg>
